<svg width="18" height="23" viewBox="0 0 18 23" fill="none" xmlns="http://www.w3.org/2000/svg">
<path d="M1 14C1 12.1144 1 11.1716 1.58579 10.5858C2.17157 10 3.11438 10 5 10H13C14.8856 10 15.8284 10 16.4142 10.5858C17 11.1716 17 12.1144 17 14V16C17 18.8284 17 20.2426 16.1213 21.1213C15.2426 22 13.8284 22 11 22H7C4.17157 22 2.75736 22 1.87868 21.1213C1 20.2426 1 18.8284 1 16V14Z" stroke="#33363F" stroke-width="2"/>
<path d="M13.5 9.99981L13.5775 9.37922C13.8365 7.30763 12.9043 5.26726 11.1688 4.10685V4.10685C9.10236 2.72519 6.36727 2.89548 4.4882 4.5228L3.66988 5.23149" stroke="#33363F" stroke-width="2" stroke-linecap="round"/>
</svg>
